<mxfile host="65bd71144e">
    <diagram id="L74JEpkO9DgpTOGVz_7I" name="第 1 页">
        <mxGraphModel dx="1129" dy="802" grid="1" gridSize="10" guides="1" tooltips="1" connect="1" arrows="1" fold="1" page="1" pageScale="1" pageWidth="827" pageHeight="1169" math="0" shadow="0">
            <root>
                <mxCell id="0"/>
                <mxCell id="1" parent="0"/>
                <mxCell id="3" value="客服端" style="text;html=1;align=center;verticalAlign=middle;resizable=0;points=[];autosize=1;strokeColor=none;fillColor=none;fontSize=20;fontFamily=Verdana;sketch=1;hachureGap=4;jiggle=2;curveFitting=1;rounded=0;" parent="1" vertex="1">
                    <mxGeometry x="90" y="80" width="80" height="40" as="geometry"/>
                </mxCell>
                <mxCell id="4" value="服务端" style="text;html=1;align=center;verticalAlign=middle;resizable=0;points=[];autosize=1;strokeColor=none;fillColor=none;fontSize=20;fontFamily=Verdana;sketch=1;hachureGap=4;jiggle=2;curveFitting=1;rounded=0;" parent="1" vertex="1">
                    <mxGeometry x="640" y="80" width="80" height="40" as="geometry"/>
                </mxCell>
                <mxCell id="5" value="zookeeper" style="text;html=1;align=center;verticalAlign=middle;resizable=0;points=[];autosize=1;strokeColor=none;fillColor=none;fontSize=20;fontFamily=Verdana;sketch=1;hachureGap=4;jiggle=2;curveFitting=1;rounded=0;" parent="1" vertex="1">
                    <mxGeometry x="342.5" y="80" width="130" height="40" as="geometry"/>
                </mxCell>
                <mxCell id="12" value="" style="edgeStyle=none;hachureGap=4;html=1;fontFamily=Garamond;fontSize=20;fontColor=#FFFFFF;" parent="1" source="8" target="10" edge="1">
                    <mxGeometry relative="1" as="geometry"/>
                </mxCell>
                <mxCell id="8" value="&lt;font color=&quot;#ffffff&quot; style=&quot;font-size: 18px;&quot;&gt;使用&lt;span style=&quot;background-color: rgb(31, 31, 31); font-family: Menlo, Monaco, &amp;quot;Courier New&amp;quot;, monospace;&quot;&gt;RpcChannel&lt;/span&gt;&lt;span style=&quot;background-color: rgb(31, 31, 31);&quot;&gt;类初始化服务桩&lt;/span&gt;&lt;/font&gt;" style="whiteSpace=wrap;html=1;rounded=1;hachureGap=4;fontFamily=Garamond;fontSize=20;fontSource=https%3A%2F%2Ffonts.googleapis.com%2Fcss%3Ffamily%3DArchitects%2BDaughter;" parent="1" vertex="1">
                    <mxGeometry x="50" y="140" width="160" height="90" as="geometry"/>
                </mxCell>
                <mxCell id="13" value="" style="edgeStyle=none;sketch=0;hachureGap=4;jiggle=2;curveFitting=1;html=1;fontFamily=Garamond;fontSize=20;fontColor=#FFFFFF;" parent="1" source="10" target="11" edge="1">
                    <mxGeometry relative="1" as="geometry"/>
                </mxCell>
                <mxCell id="10" value="&lt;font style=&quot;font-size: 18px;&quot;&gt;通过protobuf生成的类构造请求&lt;/font&gt;" style="whiteSpace=wrap;html=1;rounded=1;hachureGap=4;fontFamily=Garamond;fontSize=20;fontSource=https%3A%2F%2Ffonts.googleapis.com%2Fcss%3Ffamily%3DArchitects%2BDaughter;" parent="1" vertex="1">
                    <mxGeometry x="50" y="270" width="160" height="90" as="geometry"/>
                </mxCell>
                <mxCell id="17" style="edgeStyle=none;sketch=0;hachureGap=4;jiggle=2;curveFitting=1;html=1;exitX=1;exitY=0.5;exitDx=0;exitDy=0;fontFamily=Garamond;fontSize=12;fontColor=#FFFFFF;" parent="1" source="11" target="16" edge="1">
                    <mxGeometry relative="1" as="geometry"/>
                </mxCell>
                <mxCell id="18" value="从zookeeper中获取&lt;br&gt;服务的地址" style="edgeLabel;html=1;align=center;verticalAlign=middle;resizable=0;points=[];fontSize=12;fontFamily=Garamond;fontColor=#FFFFFF;" parent="17" vertex="1" connectable="0">
                    <mxGeometry x="0.1628" relative="1" as="geometry">
                        <mxPoint x="-16" y="-4" as="offset"/>
                    </mxGeometry>
                </mxCell>
                <mxCell id="27" value="" style="edgeStyle=none;sketch=0;hachureGap=4;jiggle=2;curveFitting=1;html=1;fontFamily=Garamond;fontSize=12;fontColor=#FFFFFF;" parent="1" source="11" target="26" edge="1">
                    <mxGeometry relative="1" as="geometry"/>
                </mxCell>
                <mxCell id="11" value="&lt;font style=&quot;font-size: 18px;&quot;&gt;通过服务桩调用方法&lt;/font&gt;" style="whiteSpace=wrap;html=1;rounded=1;hachureGap=4;fontFamily=Garamond;fontSize=20;fontSource=https%3A%2F%2Ffonts.googleapis.com%2Fcss%3Ffamily%3DArchitects%2BDaughter;" parent="1" vertex="1">
                    <mxGeometry x="50" y="400" width="160" height="90" as="geometry"/>
                </mxCell>
                <mxCell id="16" value="&lt;font style=&quot;font-size: 12px;&quot;&gt;zookeeper文件配置中心&lt;/font&gt;" style="ellipse;shape=doubleEllipse;whiteSpace=wrap;html=1;sketch=0;hachureGap=4;jiggle=2;curveFitting=1;fontFamily=Garamond;fontSize=20;fontColor=#FFFFFF;" parent="1" vertex="1">
                    <mxGeometry x="342.5" y="330" width="115" height="75" as="geometry"/>
                </mxCell>
                <mxCell id="21" value="" style="edgeStyle=none;sketch=0;hachureGap=4;jiggle=2;curveFitting=1;html=1;fontFamily=Garamond;fontSize=18;fontColor=#FFFFFF;" parent="1" source="19" target="20" edge="1">
                    <mxGeometry relative="1" as="geometry"/>
                </mxCell>
                <mxCell id="19" value="&lt;font style=&quot;font-size: 18px;&quot;&gt;读取配置文件配置服务端&lt;/font&gt;" style="whiteSpace=wrap;html=1;rounded=1;hachureGap=4;fontFamily=Garamond;fontSize=20;fontSource=https%3A%2F%2Ffonts.googleapis.com%2Fcss%3Ffamily%3DArchitects%2BDaughter;" parent="1" vertex="1">
                    <mxGeometry x="600" y="140" width="160" height="90" as="geometry"/>
                </mxCell>
                <mxCell id="23" value="" style="edgeStyle=none;sketch=0;hachureGap=4;jiggle=2;curveFitting=1;html=1;fontFamily=Garamond;fontSize=18;fontColor=#FFFFFF;" parent="1" source="20" target="22" edge="1">
                    <mxGeometry relative="1" as="geometry"/>
                </mxCell>
                <mxCell id="20" value="&lt;font style=&quot;font-size: 18px;&quot;&gt;将继承protobuf产生服务类的服务添加到分发器中&lt;/font&gt;" style="whiteSpace=wrap;html=1;rounded=1;hachureGap=4;fontFamily=Garamond;fontSize=20;fontSource=https%3A%2F%2Ffonts.googleapis.com%2Fcss%3Ffamily%3DArchitects%2BDaughter;" parent="1" vertex="1">
                    <mxGeometry x="600" y="270" width="160" height="90" as="geometry"/>
                </mxCell>
                <mxCell id="24" style="edgeStyle=none;sketch=0;hachureGap=4;jiggle=2;curveFitting=1;html=1;exitX=0;exitY=0.5;exitDx=0;exitDy=0;entryX=1;entryY=0.5;entryDx=0;entryDy=0;fontFamily=Garamond;fontSize=18;fontColor=#FFFFFF;" parent="1" source="22" target="16" edge="1">
                    <mxGeometry relative="1" as="geometry"/>
                </mxCell>
                <mxCell id="25" value="&lt;font style=&quot;font-size: 12px;&quot;&gt;将服务端的服务注册&lt;br&gt;到zookeeper&lt;/font&gt;" style="edgeLabel;html=1;align=center;verticalAlign=middle;resizable=0;points=[];fontSize=18;fontFamily=Garamond;fontColor=#FFFFFF;" parent="24" vertex="1" connectable="0">
                    <mxGeometry x="-0.0097" y="-2" relative="1" as="geometry">
                        <mxPoint as="offset"/>
                    </mxGeometry>
                </mxCell>
                <mxCell id="29" value="" style="edgeStyle=none;sketch=0;hachureGap=4;jiggle=2;curveFitting=1;html=1;fontFamily=Garamond;fontSize=12;fontColor=#FFFFFF;" parent="1" source="22" target="28" edge="1">
                    <mxGeometry relative="1" as="geometry"/>
                </mxCell>
                <mxCell id="22" value="&lt;span style=&quot;font-size: 18px;&quot;&gt;初始化网络，启动服务并将服务注册到zookeeper&lt;/span&gt;" style="whiteSpace=wrap;html=1;rounded=1;hachureGap=4;fontFamily=Garamond;fontSize=20;fontSource=https%3A%2F%2Ffonts.googleapis.com%2Fcss%3Ffamily%3DArchitects%2BDaughter;" parent="1" vertex="1">
                    <mxGeometry x="600" y="400" width="160" height="90" as="geometry"/>
                </mxCell>
                <mxCell id="31" value="" style="edgeStyle=none;sketch=0;hachureGap=4;jiggle=2;curveFitting=1;html=1;fontFamily=Garamond;fontSize=12;fontColor=#FFFFFF;" parent="1" source="26" target="30" edge="1">
                    <mxGeometry relative="1" as="geometry"/>
                </mxCell>
                <mxCell id="33" style="edgeStyle=none;sketch=0;hachureGap=4;jiggle=2;curveFitting=1;html=1;exitX=1;exitY=0.25;exitDx=0;exitDy=0;entryX=0;entryY=0.25;entryDx=0;entryDy=0;fontFamily=Garamond;fontSize=12;fontColor=#FFFFFF;" parent="1" source="26" target="28" edge="1">
                    <mxGeometry relative="1" as="geometry"/>
                </mxCell>
                <mxCell id="26" value="&lt;span style=&quot;font-size: 18px;&quot;&gt;序列化请求数据并发送，接收响应数据并反序列化&lt;/span&gt;" style="whiteSpace=wrap;html=1;rounded=1;hachureGap=4;fontFamily=Garamond;fontSize=20;fontSource=https%3A%2F%2Ffonts.googleapis.com%2Fcss%3Ffamily%3DArchitects%2BDaughter;" parent="1" vertex="1">
                    <mxGeometry x="50" y="540" width="160" height="90" as="geometry"/>
                </mxCell>
                <mxCell id="34" style="edgeStyle=none;sketch=0;hachureGap=4;jiggle=2;curveFitting=1;html=1;exitX=0;exitY=0.75;exitDx=0;exitDy=0;entryX=1;entryY=0.75;entryDx=0;entryDy=0;fontFamily=Garamond;fontSize=12;fontColor=#FFFFFF;" parent="1" source="28" target="26" edge="1">
                    <mxGeometry relative="1" as="geometry"/>
                </mxCell>
                <mxCell id="28" value="&lt;span style=&quot;font-size: 18px;&quot;&gt;反序列化请求数据并调用服务函数，序列化响应数据并发送&lt;/span&gt;" style="whiteSpace=wrap;html=1;rounded=1;hachureGap=4;fontFamily=Garamond;fontSize=20;fontSource=https%3A%2F%2Ffonts.googleapis.com%2Fcss%3Ffamily%3DArchitects%2BDaughter;" parent="1" vertex="1">
                    <mxGeometry x="600" y="540" width="160" height="90" as="geometry"/>
                </mxCell>
                <mxCell id="30" value="&lt;span style=&quot;font-size: 18px;&quot;&gt;依据协议解析出的内容（错误码or响应对象）进行相应的操作&lt;/span&gt;" style="whiteSpace=wrap;html=1;rounded=1;hachureGap=4;fontFamily=Garamond;fontSize=20;fontSource=https%3A%2F%2Ffonts.googleapis.com%2Fcss%3Ffamily%3DArchitects%2BDaughter;" parent="1" vertex="1">
                    <mxGeometry x="50" y="680" width="160" height="100" as="geometry"/>
                </mxCell>
            </root>
        </mxGraphModel>
    </diagram>
</mxfile>